<svg width="59" height="29" viewBox="0 0 59 29" fill="none" xmlns="http://www.w3.org/2000/svg">
<path d="M13.8281 16.1953C12.643 16.1953 11.4845 16.5467 10.499 17.2052C9.51364 17.8636 8.7456 18.7995 8.29207 19.8944C7.83853 20.9893 7.71987 22.1941 7.95108 23.3565C8.18229 24.5189 8.75299 25.5866 9.59101 26.4246C10.429 27.2626 11.4967 27.8333 12.6591 28.0645C13.8215 28.2958 15.0263 28.1771 16.1212 27.7236C17.2162 27.27 18.152 26.502 18.8104 25.5166C19.4689 24.5312 19.8203 23.3726 19.8203 22.1875C19.8185 20.5988 19.1866 19.0757 18.0633 17.9524C16.9399 16.829 15.4168 16.1971 13.8281 16.1953ZM13.8281 24.9531C13.2811 24.9531 12.7464 24.7909 12.2916 24.487C11.8368 24.1831 11.4823 23.7512 11.273 23.2459C11.0637 22.7405 11.0089 22.1844 11.1156 21.648C11.2224 21.1115 11.4858 20.6187 11.8725 20.2319C12.2593 19.8451 12.7521 19.5817 13.2886 19.475C13.8251 19.3683 14.3811 19.4231 14.8865 19.6324C15.3918 19.8417 15.8238 20.1962 16.1277 20.651C16.4315 21.1058 16.5938 21.6405 16.5938 22.1875C16.5938 22.921 16.3024 23.6244 15.7837 24.1431C15.2651 24.6617 14.5616 24.9531 13.8281 24.9531Z" fill="black"/>
<path d="M47.0156 16.1953C45.8305 16.1953 44.672 16.5467 43.6865 17.2052C42.7011 17.8636 41.9331 18.7995 41.4796 19.8944C41.026 20.9893 40.9074 22.1941 41.1386 23.3565C41.3698 24.5189 41.9405 25.5866 42.7785 26.4246C43.6165 27.2626 44.6842 27.8333 45.8466 28.0645C47.009 28.2958 48.2138 28.1771 49.3087 27.7236C50.4037 27.27 51.3395 26.502 51.998 25.5166C52.6564 24.5312 53.0078 23.3726 53.0078 22.1875C53.006 20.5988 52.3741 19.0757 51.2508 17.9524C50.1274 16.829 48.6043 16.1971 47.0156 16.1953ZM47.0156 24.9531C46.4686 24.9531 45.9339 24.7909 45.4791 24.487C45.0243 24.1831 44.6698 23.7512 44.4605 23.2459C44.2512 22.7405 44.1964 22.1844 44.3031 21.648C44.4099 21.1115 44.6733 20.6187 45.06 20.2319C45.4468 19.8451 45.9396 19.5817 46.4761 19.475C47.0126 19.3683 47.5686 19.4231 48.074 19.6324C48.5793 19.8417 49.0113 20.1962 49.3152 20.651C49.6191 21.1058 49.7813 21.6405 49.7813 22.1875C49.7813 22.921 49.4899 23.6244 48.9712 24.1431C48.4526 24.6617 47.7491 24.9531 47.0156 24.9531Z" fill="black"/>
<path d="M55.0129 11.2449L44.25 9.28126L35.0871 1.67868C34.179 0.932723 33.0405 0.52449 31.8653 0.523452H18.3661C17.6053 0.52165 16.8541 0.691887 16.1684 1.02143C15.4828 1.35097 14.8805 1.83128 14.4067 2.42643L8.55408 9.28126H4.60938C3.50952 9.28249 2.45505 9.71994 1.67733 10.4977C0.899616 11.2754 0.462158 12.3298 0.460938 13.4297V18.5C0.462432 19.8443 0.997104 21.1331 1.94765 22.0836C2.89819 23.0342 4.18698 23.5688 5.53125 23.5703H6.58507C6.38053 22.5036 6.41414 21.4048 6.68352 20.3525C6.9529 19.3003 7.45139 18.3205 8.14337 17.4832C8.83534 16.646 9.70371 15.9719 10.6864 15.5092C11.6691 15.0465 12.7419 14.8065 13.8281 14.8065C14.9143 14.8065 15.9871 15.0465 16.9698 15.5092C17.9525 15.9719 18.8209 16.646 19.5129 17.4832C20.2049 18.3205 20.7033 19.3003 20.9727 20.3525C21.2421 21.4048 21.2757 22.5036 21.0712 23.5703H39.7726C39.568 22.5036 39.6016 21.4048 39.871 20.3525C40.1404 19.3003 40.6389 18.3205 41.3309 17.4832C42.0228 16.646 42.8912 15.9719 43.8739 15.5092C44.8566 15.0465 45.9294 14.8065 47.0156 14.8065C48.1018 14.8065 49.1746 15.0465 50.1573 15.5092C51.14 15.9719 52.0084 16.646 52.7004 17.4832C53.3924 18.3205 53.8909 19.3003 54.1602 20.3525C54.4296 21.4048 54.4632 22.5036 54.2587 23.5703H54.3906C55.4905 23.5691 56.545 23.1317 57.3227 22.3539C58.1004 21.5762 58.5378 20.5217 58.5391 19.4219V15.3463C58.544 14.3525 58.19 13.3904 57.5422 12.6368C56.8943 11.8833 55.9962 11.389 55.0129 11.2449ZM20.7422 7.89845C20.7422 8.2652 20.5965 8.61692 20.3372 8.87625C20.0778 9.13558 19.7261 9.28126 19.3594 9.28126H13.2802C13.148 9.28134 13.0185 9.24351 12.9072 9.17226C12.7958 9.10102 12.7072 8.99933 12.6519 8.87927C12.5965 8.75921 12.5768 8.6258 12.5949 8.49485C12.6131 8.3639 12.6684 8.24091 12.7544 8.14044L16.7779 3.42736C16.9078 3.27548 17.0691 3.15357 17.2506 3.07002C17.4322 2.98647 17.6297 2.94326 17.8295 2.94337H19.3594C19.7261 2.94337 20.0778 3.08906 20.3372 3.34839C20.5965 3.60772 20.7422 3.95944 20.7422 4.32619V7.89845ZM27.6563 14.3516H25.8125C25.4458 14.3516 25.094 14.2059 24.8347 13.9466C24.5754 13.6872 24.4297 13.3355 24.4297 12.9688C24.4297 12.602 24.5754 12.2503 24.8347 11.991C25.094 11.7316 25.4458 11.586 25.8125 11.586H27.6563C28.023 11.586 28.3747 11.7316 28.634 11.991C28.8934 12.2503 29.0391 12.602 29.0391 12.9688C29.0391 13.3355 28.8934 13.6872 28.634 13.9466C28.3747 14.2059 28.023 14.3516 27.6563 14.3516ZM38.5435 9.31514L25.3483 9.28449C24.9822 9.28364 24.6313 9.13757 24.3726 8.87834C24.114 8.6191 23.9688 8.26786 23.9688 7.90168V4.32619C23.9688 3.95944 24.1144 3.60772 24.3738 3.34839C24.6331 3.08906 24.9848 2.94337 25.3516 2.94337H31.9831C32.2939 2.9434 32.5956 3.04813 32.8396 3.24068L38.9733 8.08052C39.0864 8.16955 39.1688 8.29163 39.2092 8.42976C39.2496 8.56788 39.2458 8.71516 39.1985 8.85107C39.1512 8.98697 39.0627 9.10472 38.9453 9.18791C38.8278 9.2711 38.6874 9.31558 38.5435 9.31514Z" fill="black"/>
</svg>
