<svg width="424" height="599" viewBox="0 0 424 599" fill="none" xmlns="http://www.w3.org/2000/svg">
<line y1="83.5" x2="328" y2="83.5" stroke="black" stroke-width="3"/>
<line x1="1.5" y1="85" x2="1.49998" y2="599" stroke="black" stroke-width="3"/>
<line x1="329.5" y1="82" x2="329.5" y2="599" stroke="black" stroke-width="3"/>
<line x1="352" y1="341.5" x2="385" y2="341.5" stroke="black" stroke-width="3"/>
<line x1="165.5" y1="32" x2="165.5" y2="65" stroke="black" stroke-width="3"/>
<path d="M402.044 348.179C401.418 348.175 400.806 348.066 400.21 347.853C399.617 347.636 399.083 347.284 398.605 346.798C398.128 346.308 397.749 345.658 397.468 344.849C397.186 344.035 397.046 343.027 397.046 341.825C397.046 340.696 397.165 339.69 397.404 338.808C397.642 337.926 397.985 337.18 398.433 336.571C398.88 335.957 399.419 335.491 400.05 335.171C400.685 334.852 401.394 334.692 402.179 334.692C403.001 334.692 403.73 334.856 404.365 335.184C405.004 335.508 405.519 335.953 405.911 336.52C406.304 337.082 406.546 337.722 406.64 338.438H404.307C404.188 337.918 403.943 337.506 403.572 337.204C403.206 336.897 402.741 336.744 402.179 336.744C401.271 336.744 400.572 337.14 400.082 337.933C399.596 338.725 399.351 339.818 399.347 341.212H399.436C399.645 340.837 399.916 340.515 400.248 340.246C400.581 339.978 400.956 339.771 401.373 339.626C401.795 339.477 402.24 339.403 402.709 339.403C403.476 339.403 404.164 339.586 404.774 339.952C405.387 340.319 405.873 340.824 406.231 341.467C406.589 342.107 406.766 342.839 406.762 343.666C406.766 344.527 406.57 345.3 406.174 345.987C405.777 346.668 405.225 347.205 404.518 347.597C403.811 347.989 402.986 348.183 402.044 348.179ZM402.032 346.261C402.496 346.261 402.911 346.148 403.278 345.923C403.644 345.697 403.934 345.392 404.147 345.009C404.36 344.625 404.465 344.195 404.46 343.717C404.465 343.249 404.362 342.825 404.154 342.445C403.949 342.066 403.666 341.766 403.304 341.544C402.941 341.322 402.528 341.212 402.063 341.212C401.718 341.212 401.397 341.278 401.098 341.41C400.8 341.542 400.54 341.725 400.318 341.96C400.097 342.19 399.922 342.458 399.794 342.765C399.671 343.067 399.607 343.391 399.603 343.737C399.607 344.192 399.713 344.612 399.922 344.996C400.131 345.379 400.419 345.686 400.785 345.916C401.152 346.146 401.567 346.261 402.032 346.261ZM408.948 348V338.182H411.159V339.85H411.274C411.479 339.288 411.818 338.849 412.291 338.533C412.764 338.214 413.328 338.054 413.985 338.054C414.649 338.054 415.21 338.216 415.666 338.54C416.126 338.859 416.45 339.296 416.637 339.85H416.74C416.957 339.305 417.323 338.87 417.839 338.546C418.359 338.218 418.975 338.054 419.686 338.054C420.59 338.054 421.327 338.339 421.898 338.911C422.469 339.482 422.755 340.315 422.755 341.41V348H420.434V341.768C420.434 341.158 420.272 340.713 419.948 340.432C419.625 340.146 419.228 340.004 418.759 340.004C418.201 340.004 417.764 340.178 417.449 340.528C417.138 340.873 416.983 341.322 416.983 341.876V348H414.713V341.672C414.713 341.165 414.56 340.76 414.253 340.457C413.951 340.155 413.554 340.004 413.064 340.004C412.732 340.004 412.429 340.089 412.157 340.259C411.884 340.425 411.666 340.662 411.505 340.969C411.343 341.271 411.262 341.625 411.262 342.03V348H408.948Z" fill="black"/>
<path d="M143.27 18V16.2869L147.815 11.8317C148.249 11.3928 148.611 11.0028 148.901 10.6619C149.191 10.321 149.408 9.99077 149.553 9.67116C149.698 9.35156 149.771 9.01065 149.771 8.64844C149.771 8.23508 149.677 7.88139 149.489 7.58736C149.302 7.28906 149.044 7.05895 148.716 6.89702C148.388 6.73508 148.015 6.65412 147.597 6.65412C147.167 6.65412 146.79 6.74361 146.466 6.92259C146.142 7.0973 145.891 7.34659 145.712 7.67045C145.537 7.99432 145.449 8.37997 145.449 8.82741H143.193C143.193 7.99645 143.383 7.27415 143.762 6.66051C144.141 6.04687 144.663 5.57173 145.328 5.23509C145.997 4.89844 146.764 4.73011 147.629 4.73011C148.507 4.73011 149.278 4.89418 149.943 5.2223C150.608 5.55043 151.123 6 151.49 6.57102C151.861 7.14204 152.046 7.79403 152.046 8.52699C152.046 9.01705 151.952 9.49858 151.765 9.97159C151.577 10.4446 151.247 10.9687 150.774 11.544C150.305 12.1193 149.647 12.8161 148.799 13.6342L146.543 15.929V16.0185H152.244V18H143.27ZM155.9 18.1406C155.513 18.1406 155.18 18.0043 154.903 17.7315C154.626 17.4588 154.49 17.1264 154.494 16.7344C154.49 16.3509 154.626 16.0227 154.903 15.75C155.18 15.4773 155.513 15.3409 155.9 15.3409C156.275 15.3409 156.601 15.4773 156.878 15.75C157.16 16.0227 157.302 16.3509 157.307 16.7344C157.302 16.9943 157.234 17.2308 157.102 17.4439C156.974 17.657 156.804 17.8274 156.591 17.9553C156.382 18.0788 156.152 18.1406 155.9 18.1406ZM164.063 18.179C163.211 18.179 162.448 18.0192 161.775 17.6996C161.101 17.3757 160.567 16.9325 160.17 16.37C159.778 15.8075 159.57 15.1641 159.544 14.4396H161.845C161.888 14.9766 162.12 15.4155 162.542 15.7564C162.964 16.093 163.471 16.2614 164.063 16.2614C164.528 16.2614 164.941 16.1548 165.303 15.9418C165.665 15.7287 165.951 15.4325 166.16 15.0533C166.369 14.674 166.471 14.2415 166.467 13.7557C166.471 13.2614 166.366 12.8224 166.153 12.4389C165.94 12.0554 165.648 11.755 165.278 11.5376C164.907 11.3161 164.481 11.2053 163.999 11.2053C163.607 11.201 163.222 11.2734 162.842 11.4226C162.463 11.5717 162.163 11.7678 161.941 12.0107L159.8 11.6591L160.484 4.90909H168.077V6.89062H162.446L162.069 10.3615H162.146C162.388 10.076 162.731 9.83949 163.175 9.65199C163.618 9.46023 164.104 9.36435 164.632 9.36435C165.425 9.36435 166.132 9.55185 166.754 9.92685C167.376 10.2976 167.866 10.8089 168.224 11.4609C168.582 12.1129 168.761 12.8587 168.761 13.6982C168.761 14.5632 168.561 15.3345 168.16 16.0121C167.764 16.6854 167.212 17.2159 166.505 17.6037C165.802 17.9872 164.988 18.179 164.063 18.179ZM170.928 18V8.18182H173.14V9.85014H173.255C173.459 9.28764 173.798 8.84872 174.271 8.53338C174.744 8.21378 175.309 8.05398 175.965 8.05398C176.63 8.05398 177.19 8.21591 177.646 8.53977C178.106 8.85937 178.43 9.29616 178.618 9.85014H178.72C178.937 9.30469 179.304 8.87003 179.82 8.54616C180.339 8.21804 180.955 8.05398 181.667 8.05398C182.57 8.05398 183.307 8.33949 183.878 8.91051C184.449 9.48153 184.735 10.3146 184.735 11.4098V18H182.415V11.7678C182.415 11.1584 182.253 10.7131 181.929 10.4318C181.605 10.1463 181.209 10.0036 180.74 10.0036C180.182 10.0036 179.745 10.1783 179.43 10.5277C179.119 10.8729 178.963 11.3224 178.963 11.8764V18H176.694V11.6719C176.694 11.1648 176.54 10.7599 176.234 10.4574C175.931 10.1548 175.535 10.0036 175.045 10.0036C174.712 10.0036 174.41 10.0888 174.137 10.2592C173.864 10.4254 173.647 10.6619 173.485 10.9688C173.323 11.2713 173.242 11.625 173.242 12.0298V18H170.928Z" fill="black"/>
</svg>
