<svg width="927" height="660" viewBox="0 0 927 660" fill="none" xmlns="http://www.w3.org/2000/svg">
<line x1="596" y1="5.89893" x2="924" y2="5.89893" stroke="black" stroke-width="3"/>
<line x1="597.5" y1="7.39893" x2="597.5" y2="548" stroke="black" stroke-width="3"/>
<line x1="925.5" y1="4.24365" x2="925.5" y2="548" stroke="black" stroke-width="3"/>
<line y1="1.5" x2="328" y2="1.5" stroke="black" stroke-width="3"/>
<line x1="1.5" y1="3.17993" x2="1.49998" y2="548" stroke="black" stroke-width="3"/>
<line x1="329.5" y1="6.55671e-08" x2="329.5" y2="548" stroke="black" stroke-width="3"/>
<line x1="43" y1="398.5" x2="286" y2="398.5" stroke="black" stroke-width="3"/>
<line x1="43" y1="27.5" x2="286" y2="27.5" stroke="black" stroke-width="3"/>
<line x1="165.5" y1="29" x2="165.5" y2="400" stroke="black" stroke-width="3"/>
<line x1="662.5" y1="16" x2="662.5" y2="86" stroke="black" stroke-width="3"/>
<line x1="861.5" y1="16" x2="861.5" y2="86" stroke="black" stroke-width="3"/>
<line x1="860" y1="52.356" x2="661" y2="52.3559" stroke="black" stroke-width="3"/>
<line x1="662.5" y1="107" x2="662.5" y2="177" stroke="black" stroke-width="3"/>
<line x1="861.5" y1="107" x2="861.5" y2="177" stroke="black" stroke-width="3"/>
<line x1="860" y1="143.356" x2="661" y2="143.356" stroke="black" stroke-width="3"/>
<line x1="662.5" y1="198" x2="662.5" y2="268" stroke="black" stroke-width="3"/>
<line x1="861.5" y1="198" x2="861.5" y2="268" stroke="black" stroke-width="3"/>
<line x1="860" y1="234.356" x2="661" y2="234.356" stroke="black" stroke-width="3"/>
<line x1="662.5" y1="289" x2="662.5" y2="359" stroke="black" stroke-width="3"/>
<line x1="861.5" y1="289" x2="861.5" y2="359" stroke="black" stroke-width="3"/>
<line x1="860" y1="325.356" x2="661" y2="325.356" stroke="black" stroke-width="3"/>
<line x1="662.5" y1="380" x2="662.5" y2="450" stroke="black" stroke-width="3"/>
<line x1="861.5" y1="380" x2="861.5" y2="450" stroke="black" stroke-width="3"/>
<line x1="860" y1="416.356" x2="661" y2="416.356" stroke="black" stroke-width="3"/>
<line x1="662.5" y1="471" x2="662.5" y2="541" stroke="black" stroke-width="3"/>
<line x1="861.5" y1="471" x2="861.5" y2="541" stroke="black" stroke-width="3"/>
<line x1="860" y1="507.356" x2="661" y2="507.356" stroke="black" stroke-width="3"/>
<path d="M164.707 547.293C164.317 546.902 163.683 546.902 163.293 547.293L156.929 553.657C156.538 554.047 156.538 554.681 156.929 555.071C157.319 555.462 157.953 555.462 158.343 555.071L164 549.414L169.657 555.071C170.047 555.462 170.681 555.462 171.071 555.071C171.462 554.681 171.462 554.047 171.071 553.657L164.707 547.293ZM165 597L165 548L163 548L163 597L165 597Z" fill="black"/>
<path d="M760.707 547.293C760.317 546.902 759.683 546.902 759.293 547.293L752.929 553.657C752.538 554.047 752.538 554.681 752.929 555.071C753.319 555.462 753.953 555.462 754.343 555.071L760 549.414L765.657 555.071C766.047 555.462 766.681 555.462 767.071 555.071C767.462 554.681 767.462 554.047 767.071 553.657L760.707 547.293ZM761 597L761 548L759 548L759 597L761 597Z" fill="black"/>
<path d="M105.924 616.909V630H103.553V619.217H103.476L100.415 621.173V618.999L103.668 616.909H105.924Z" fill="white"/>
<path d="M121.499 622.777L119.389 623.007C119.33 622.794 119.225 622.594 119.076 622.406C118.931 622.219 118.735 622.067 118.488 621.952C118.241 621.837 117.938 621.78 117.58 621.78C117.099 621.78 116.694 621.884 116.366 622.093C116.042 622.302 115.882 622.572 115.886 622.905C115.882 623.19 115.987 623.423 116.2 623.602C116.417 623.781 116.775 623.928 117.274 624.043L118.948 624.401C119.877 624.601 120.568 624.918 121.019 625.353C121.475 625.788 121.705 626.357 121.71 627.06C121.705 627.678 121.524 628.223 121.166 628.696C120.813 629.165 120.32 629.531 119.69 629.795C119.059 630.06 118.335 630.192 117.516 630.192C116.315 630.192 115.347 629.94 114.614 629.438C113.881 628.93 113.445 628.225 113.304 627.322L115.56 627.104C115.663 627.548 115.88 627.882 116.212 628.108C116.545 628.334 116.977 628.447 117.51 628.447C118.06 628.447 118.501 628.334 118.833 628.108C119.17 627.882 119.338 627.603 119.338 627.271C119.338 626.989 119.229 626.757 119.012 626.574C118.799 626.391 118.467 626.25 118.015 626.152L116.34 625.8C115.399 625.604 114.702 625.274 114.25 624.81C113.798 624.341 113.575 623.749 113.579 623.033C113.575 622.428 113.739 621.903 114.071 621.46C114.408 621.013 114.874 620.668 115.471 620.425C116.072 620.178 116.764 620.054 117.548 620.054C118.699 620.054 119.604 620.299 120.265 620.789C120.93 621.279 121.341 621.942 121.499 622.777ZM123.618 633.682V620.182H125.893V621.805H126.027C126.147 621.567 126.315 621.313 126.532 621.045C126.75 620.772 127.044 620.54 127.415 620.348C127.785 620.152 128.258 620.054 128.834 620.054C129.592 620.054 130.276 620.248 130.885 620.636C131.499 621.019 131.985 621.588 132.343 622.342C132.705 623.092 132.886 624.013 132.886 625.104C132.886 626.182 132.709 627.098 132.356 627.852C132.002 628.607 131.52 629.182 130.911 629.578C130.302 629.974 129.611 630.173 128.84 630.173C128.277 630.173 127.811 630.079 127.44 629.891C127.069 629.704 126.771 629.478 126.545 629.214C126.324 628.945 126.151 628.692 126.027 628.453H125.932V633.682H123.618ZM125.887 625.091C125.887 625.726 125.976 626.282 126.155 626.759C126.339 627.237 126.601 627.609 126.941 627.878C127.287 628.142 127.704 628.274 128.194 628.274C128.706 628.274 129.134 628.138 129.479 627.865C129.824 627.588 130.084 627.211 130.259 626.734C130.438 626.252 130.527 625.705 130.527 625.091C130.527 624.482 130.44 623.94 130.265 623.467C130.091 622.994 129.831 622.624 129.486 622.355C129.14 622.087 128.71 621.952 128.194 621.952C127.7 621.952 127.28 622.082 126.935 622.342C126.59 622.602 126.328 622.967 126.149 623.435C125.974 623.904 125.887 624.456 125.887 625.091ZM139.15 630.192C138.191 630.192 137.361 629.981 136.657 629.559C135.954 629.137 135.409 628.547 135.021 627.788C134.638 627.03 134.446 626.143 134.446 625.129C134.446 624.115 134.638 623.227 135.021 622.464C135.409 621.701 135.954 621.109 136.657 620.687C137.361 620.265 138.191 620.054 139.15 620.054C140.109 620.054 140.94 620.265 141.643 620.687C142.346 621.109 142.89 621.701 143.273 622.464C143.661 623.227 143.855 624.115 143.855 625.129C143.855 626.143 143.661 627.03 143.273 627.788C142.89 628.547 142.346 629.137 141.643 629.559C140.94 629.981 140.109 630.192 139.15 630.192ZM139.163 628.338C139.683 628.338 140.118 628.195 140.467 627.91C140.816 627.62 141.076 627.232 141.247 626.746C141.422 626.261 141.509 625.719 141.509 625.123C141.509 624.522 141.422 623.979 141.247 623.493C141.076 623.003 140.816 622.613 140.467 622.323C140.118 622.033 139.683 621.888 139.163 621.888C138.63 621.888 138.187 622.033 137.834 622.323C137.484 622.613 137.222 623.003 137.047 623.493C136.877 623.979 136.792 624.522 136.792 625.123C136.792 625.719 136.877 626.261 137.047 626.746C137.222 627.232 137.484 627.62 137.834 627.91C138.187 628.195 138.63 628.338 139.163 628.338ZM150.722 620.182V621.972H145.077V620.182H150.722ZM146.471 617.83H148.785V627.047C148.785 627.358 148.832 627.597 148.925 627.763C149.023 627.925 149.151 628.036 149.309 628.095C149.467 628.155 149.641 628.185 149.833 628.185C149.978 628.185 150.11 628.174 150.229 628.153C150.353 628.131 150.447 628.112 150.511 628.095L150.9 629.904C150.777 629.947 150.6 629.994 150.37 630.045C150.144 630.096 149.867 630.126 149.539 630.134C148.959 630.151 148.437 630.064 147.973 629.872C147.508 629.676 147.14 629.374 146.867 628.964C146.599 628.555 146.467 628.044 146.471 627.43V617.83ZM162.095 620.182V621.972H156.291V620.182H162.095ZM157.742 630V619.255C157.742 618.594 157.878 618.045 158.151 617.606C158.428 617.167 158.798 616.839 159.263 616.621C159.727 616.404 160.243 616.295 160.81 616.295C161.21 616.295 161.566 616.327 161.877 616.391C162.188 616.455 162.418 616.513 162.568 616.564L162.107 618.354C162.009 618.324 161.886 618.294 161.737 618.264C161.587 618.23 161.421 618.213 161.238 618.213C160.808 618.213 160.503 618.317 160.324 618.526C160.149 618.731 160.062 619.025 160.062 619.408V630H157.742ZM167.82 630.192C166.861 630.192 166.03 629.981 165.327 629.559C164.624 629.137 164.079 628.547 163.691 627.788C163.307 627.03 163.116 626.143 163.116 625.129C163.116 624.115 163.307 623.227 163.691 622.464C164.079 621.701 164.624 621.109 165.327 620.687C166.03 620.265 166.861 620.054 167.82 620.054C168.779 620.054 169.61 620.265 170.313 620.687C171.016 621.109 171.56 621.701 171.943 622.464C172.331 623.227 172.525 624.115 172.525 625.129C172.525 626.143 172.331 627.03 171.943 627.788C171.56 628.547 171.016 629.137 170.313 629.559C169.61 629.981 168.779 630.192 167.82 630.192ZM167.833 628.338C168.353 628.338 168.788 628.195 169.137 627.91C169.486 627.62 169.746 627.232 169.917 626.746C170.092 626.261 170.179 625.719 170.179 625.123C170.179 624.522 170.092 623.979 169.917 623.493C169.746 623.003 169.486 622.613 169.137 622.323C168.788 622.033 168.353 621.888 167.833 621.888C167.3 621.888 166.857 622.033 166.503 622.323C166.154 622.613 165.892 623.003 165.717 623.493C165.547 623.979 165.462 624.522 165.462 625.123C165.462 625.719 165.547 626.261 165.717 626.746C165.892 627.232 166.154 627.62 166.503 627.91C166.857 628.195 167.3 628.338 167.833 628.338ZM174.489 630V620.182H176.732V621.818H176.835C177.014 621.251 177.32 620.815 177.755 620.508C178.194 620.197 178.695 620.041 179.257 620.041C179.385 620.041 179.528 620.048 179.685 620.06C179.847 620.069 179.982 620.084 180.088 620.105V622.234C179.99 622.2 179.835 622.17 179.622 622.144C179.413 622.114 179.21 622.099 179.014 622.099C178.592 622.099 178.213 622.191 177.877 622.374C177.544 622.553 177.282 622.803 177.09 623.122C176.899 623.442 176.803 623.81 176.803 624.228V630H174.489ZM188.916 630.198C188.293 630.198 187.733 630.087 187.234 629.866C186.74 629.64 186.348 629.308 186.058 628.869C185.773 628.43 185.63 627.888 185.63 627.245C185.63 626.691 185.732 626.233 185.937 625.871C186.141 625.509 186.421 625.219 186.774 625.001C187.128 624.784 187.526 624.62 187.97 624.509C188.417 624.394 188.879 624.311 189.357 624.26C189.932 624.2 190.399 624.147 190.756 624.1C191.114 624.049 191.374 623.972 191.536 623.87C191.703 623.763 191.786 623.599 191.786 623.378V623.339C191.786 622.858 191.643 622.485 191.357 622.221C191.072 621.957 190.661 621.825 190.124 621.825C189.557 621.825 189.107 621.948 188.775 622.195C188.447 622.442 188.225 622.734 188.11 623.071L185.95 622.764C186.12 622.168 186.401 621.669 186.793 621.268C187.185 620.864 187.665 620.561 188.232 620.361C188.798 620.156 189.425 620.054 190.111 620.054C190.584 620.054 191.055 620.109 191.524 620.22C191.992 620.331 192.421 620.514 192.808 620.77C193.196 621.021 193.507 621.364 193.742 621.799C193.98 622.234 194.1 622.777 194.1 623.429V630H191.875V628.651H191.798C191.658 628.924 191.46 629.18 191.204 629.418C190.953 629.653 190.635 629.842 190.252 629.987C189.872 630.128 189.427 630.198 188.916 630.198ZM189.516 628.498C189.981 628.498 190.384 628.406 190.725 628.223C191.065 628.036 191.328 627.788 191.511 627.482C191.698 627.175 191.792 626.84 191.792 626.478V625.321C191.72 625.381 191.596 625.436 191.421 625.487C191.251 625.538 191.059 625.583 190.846 625.621C190.633 625.66 190.422 625.694 190.213 625.724C190.004 625.754 189.823 625.779 189.67 625.8C189.325 625.847 189.016 625.924 188.743 626.031C188.47 626.137 188.255 626.286 188.097 626.478C187.94 626.665 187.861 626.908 187.861 627.207C187.861 627.633 188.016 627.955 188.328 628.172C188.639 628.389 189.035 628.498 189.516 628.498ZM205.174 630.192C204.194 630.192 203.352 629.977 202.649 629.546C201.95 629.116 201.411 628.521 201.032 627.763C200.657 627 200.469 626.122 200.469 625.129C200.469 624.132 200.661 623.252 201.044 622.489C201.428 621.722 201.969 621.126 202.668 620.7C203.371 620.269 204.202 620.054 205.161 620.054C205.958 620.054 206.663 620.201 207.277 620.495C207.895 620.785 208.387 621.196 208.753 621.729C209.12 622.257 209.329 622.875 209.38 623.582H207.168C207.079 623.109 206.866 622.715 206.529 622.4C206.196 622.08 205.751 621.92 205.193 621.92C204.72 621.92 204.304 622.048 203.946 622.304C203.589 622.555 203.309 622.918 203.109 623.391C202.913 623.864 202.815 624.43 202.815 625.091C202.815 625.76 202.913 626.335 203.109 626.817C203.305 627.294 203.58 627.663 203.934 627.923C204.292 628.178 204.711 628.306 205.193 628.306C205.534 628.306 205.839 628.242 206.107 628.114C206.38 627.982 206.608 627.793 206.791 627.545C206.974 627.298 207.1 626.998 207.168 626.644H209.38C209.324 627.339 209.12 627.955 208.766 628.491C208.412 629.024 207.931 629.442 207.321 629.744C206.712 630.043 205.996 630.192 205.174 630.192ZM214.105 630.198C213.483 630.198 212.922 630.087 212.424 629.866C211.93 629.64 211.538 629.308 211.248 628.869C210.962 628.43 210.82 627.888 210.82 627.245C210.82 626.691 210.922 626.233 211.126 625.871C211.331 625.509 211.61 625.219 211.964 625.001C212.317 624.784 212.716 624.62 213.159 624.509C213.606 624.394 214.069 624.311 214.546 624.26C215.121 624.2 215.588 624.147 215.946 624.1C216.304 624.049 216.564 623.972 216.726 623.87C216.892 623.763 216.975 623.599 216.975 623.378V623.339C216.975 622.858 216.832 622.485 216.547 622.221C216.261 621.957 215.85 621.825 215.313 621.825C214.746 621.825 214.297 621.948 213.964 622.195C213.636 622.442 213.415 622.734 213.3 623.071L211.139 622.764C211.31 622.168 211.591 621.669 211.983 621.268C212.375 620.864 212.854 620.561 213.421 620.361C213.988 620.156 214.614 620.054 215.3 620.054C215.773 620.054 216.244 620.109 216.713 620.22C217.182 620.331 217.61 620.514 217.998 620.77C218.386 621.021 218.697 621.364 218.931 621.799C219.17 622.234 219.289 622.777 219.289 623.429V630H217.065V628.651H216.988C216.847 628.924 216.649 629.18 216.393 629.418C216.142 629.653 215.824 629.842 215.441 629.987C215.062 630.128 214.616 630.198 214.105 630.198ZM214.706 628.498C215.17 628.498 215.573 628.406 215.914 628.223C216.255 628.036 216.517 627.788 216.7 627.482C216.888 627.175 216.981 626.84 216.981 626.478V625.321C216.909 625.381 216.785 625.436 216.611 625.487C216.44 625.538 216.248 625.583 216.035 625.621C215.822 625.66 215.611 625.694 215.403 625.724C215.194 625.754 215.013 625.779 214.859 625.8C214.514 625.847 214.205 625.924 213.932 626.031C213.66 626.137 213.445 626.286 213.287 626.478C213.129 626.665 213.05 626.908 213.05 627.207C213.05 627.633 213.206 627.955 213.517 628.172C213.828 628.389 214.224 628.498 214.706 628.498ZM221.616 630V620.182H223.859V621.818H223.962C224.141 621.251 224.447 620.815 224.882 620.508C225.321 620.197 225.822 620.041 226.384 620.041C226.512 620.041 226.655 620.048 226.812 620.06C226.974 620.069 227.109 620.084 227.215 620.105V622.234C227.117 622.2 226.962 622.17 226.748 622.144C226.54 622.114 226.337 622.099 226.141 622.099C225.719 622.099 225.34 622.191 225.003 622.374C224.671 622.553 224.409 622.803 224.217 623.122C224.025 623.442 223.93 623.81 223.93 624.228V630H221.616Z" fill="black"/>
<path d="M695.132 630.179C694.506 630.175 693.894 630.066 693.298 629.853C692.705 629.636 692.171 629.284 691.693 628.798C691.216 628.308 690.837 627.658 690.555 626.849C690.274 626.035 690.134 625.027 690.134 623.825C690.134 622.696 690.253 621.69 690.492 620.808C690.73 619.926 691.073 619.18 691.521 618.571C691.968 617.957 692.507 617.491 693.138 617.171C693.773 616.852 694.482 616.692 695.266 616.692C696.089 616.692 696.818 616.856 697.453 617.184C698.092 617.508 698.607 617.953 698.999 618.52C699.391 619.082 699.634 619.722 699.728 620.438H697.395C697.276 619.918 697.031 619.506 696.66 619.204C696.293 618.897 695.829 618.744 695.266 618.744C694.359 618.744 693.66 619.14 693.17 619.933C692.684 620.725 692.439 621.818 692.435 623.212H692.524C692.733 622.837 693.004 622.515 693.336 622.246C693.668 621.978 694.043 621.771 694.461 621.626C694.883 621.477 695.328 621.403 695.797 621.403C696.564 621.403 697.252 621.586 697.862 621.952C698.475 622.319 698.961 622.824 699.319 623.467C699.677 624.107 699.854 624.839 699.85 625.666C699.854 626.527 699.658 627.3 699.261 627.987C698.865 628.668 698.313 629.205 697.606 629.597C696.899 629.989 696.074 630.183 695.132 630.179ZM695.119 628.261C695.584 628.261 695.999 628.148 696.366 627.923C696.732 627.697 697.022 627.392 697.235 627.009C697.448 626.625 697.553 626.195 697.548 625.717C697.553 625.249 697.45 624.825 697.242 624.445C697.037 624.066 696.754 623.766 696.391 623.544C696.029 623.322 695.616 623.212 695.151 623.212C694.806 623.212 694.484 623.278 694.186 623.41C693.888 623.542 693.628 623.725 693.406 623.96C693.185 624.19 693.01 624.458 692.882 624.765C692.759 625.067 692.695 625.391 692.69 625.737C692.695 626.192 692.801 626.612 693.01 626.996C693.219 627.379 693.506 627.686 693.873 627.916C694.239 628.146 694.655 628.261 695.119 628.261Z" fill="white"/>
<path d="M714.26 622.777L712.151 623.007C712.091 622.794 711.987 622.594 711.838 622.406C711.693 622.219 711.497 622.067 711.25 621.952C711.003 621.837 710.7 621.78 710.342 621.78C709.861 621.78 709.456 621.884 709.128 622.093C708.804 622.302 708.644 622.572 708.648 622.905C708.644 623.19 708.748 623.423 708.961 623.602C709.179 623.781 709.537 623.928 710.035 624.043L711.71 624.401C712.639 624.601 713.329 624.918 713.781 625.353C714.237 625.788 714.467 626.357 714.471 627.06C714.467 627.678 714.286 628.223 713.928 628.696C713.574 629.165 713.082 629.531 712.451 629.795C711.821 630.06 711.096 630.192 710.278 630.192C709.076 630.192 708.109 629.94 707.376 629.438C706.643 628.93 706.206 628.225 706.066 627.322L708.322 627.104C708.424 627.548 708.642 627.882 708.974 628.108C709.307 628.334 709.739 628.447 710.272 628.447C710.821 628.447 711.263 628.334 711.595 628.108C711.932 627.882 712.1 627.603 712.1 627.271C712.1 626.989 711.991 626.757 711.774 626.574C711.561 626.391 711.228 626.25 710.777 626.152L709.102 625.8C708.16 625.604 707.464 625.274 707.012 624.81C706.56 624.341 706.336 623.749 706.341 623.033C706.336 622.428 706.5 621.903 706.833 621.46C707.169 621.013 707.636 620.668 708.233 620.425C708.834 620.178 709.526 620.054 710.31 620.054C711.461 620.054 712.366 620.299 713.027 620.789C713.691 621.279 714.103 621.942 714.26 622.777ZM716.379 633.682V620.182H718.655V621.805H718.789C718.908 621.567 719.077 621.313 719.294 621.045C719.511 620.772 719.805 620.54 720.176 620.348C720.547 620.152 721.02 620.054 721.595 620.054C722.354 620.054 723.038 620.248 723.647 620.636C724.261 621.019 724.747 621.588 725.104 622.342C725.467 623.092 725.648 624.013 725.648 625.104C725.648 626.182 725.471 627.098 725.117 627.852C724.764 628.607 724.282 629.182 723.673 629.578C723.063 629.974 722.373 630.173 721.602 630.173C721.039 630.173 720.573 630.079 720.202 629.891C719.831 629.704 719.533 629.478 719.307 629.214C719.085 628.945 718.913 628.692 718.789 628.453H718.693V633.682H716.379ZM718.649 625.091C718.649 625.726 718.738 626.282 718.917 626.759C719.1 627.237 719.362 627.609 719.703 627.878C720.048 628.142 720.466 628.274 720.956 628.274C721.467 628.274 721.896 628.138 722.241 627.865C722.586 627.588 722.846 627.211 723.021 626.734C723.2 626.252 723.289 625.705 723.289 625.091C723.289 624.482 723.202 623.94 723.027 623.467C722.852 622.994 722.592 622.624 722.247 622.355C721.902 622.087 721.472 621.952 720.956 621.952C720.462 621.952 720.042 622.082 719.697 622.342C719.352 622.602 719.09 622.967 718.911 623.435C718.736 623.904 718.649 624.456 718.649 625.091ZM731.912 630.192C730.953 630.192 730.122 629.981 729.419 629.559C728.716 629.137 728.171 628.547 727.783 627.788C727.399 627.03 727.207 626.143 727.207 625.129C727.207 624.115 727.399 623.227 727.783 622.464C728.171 621.701 728.716 621.109 729.419 620.687C730.122 620.265 730.953 620.054 731.912 620.054C732.871 620.054 733.702 620.265 734.405 620.687C735.108 621.109 735.651 621.701 736.035 622.464C736.423 623.227 736.617 624.115 736.617 625.129C736.617 626.143 736.423 627.03 736.035 627.788C735.651 628.547 735.108 629.137 734.405 629.559C733.702 629.981 732.871 630.192 731.912 630.192ZM731.925 628.338C732.445 628.338 732.879 628.195 733.229 627.91C733.578 627.62 733.838 627.232 734.009 626.746C734.183 626.261 734.271 625.719 734.271 625.123C734.271 624.522 734.183 623.979 734.009 623.493C733.838 623.003 733.578 622.613 733.229 622.323C732.879 622.033 732.445 621.888 731.925 621.888C731.392 621.888 730.949 622.033 730.595 622.323C730.246 622.613 729.984 623.003 729.809 623.493C729.639 623.979 729.553 624.522 729.553 625.123C729.553 625.719 729.639 626.261 729.809 626.746C729.984 627.232 730.246 627.62 730.595 627.91C730.949 628.195 731.392 628.338 731.925 628.338ZM743.483 620.182V621.972H737.839V620.182H743.483ZM739.233 617.83H741.546V627.047C741.546 627.358 741.593 627.597 741.687 627.763C741.785 627.925 741.913 628.036 742.071 628.095C742.228 628.155 742.403 628.185 742.595 628.185C742.74 628.185 742.872 628.174 742.991 628.153C743.115 628.131 743.208 628.112 743.272 628.095L743.662 629.904C743.539 629.947 743.362 629.994 743.132 630.045C742.906 630.096 742.629 630.126 742.301 630.134C741.721 630.151 741.199 630.064 740.735 629.872C740.27 629.676 739.902 629.374 739.629 628.964C739.36 628.555 739.228 628.044 739.233 627.43V617.83ZM753.038 622.777L750.928 623.007C750.869 622.794 750.764 622.594 750.615 622.406C750.47 622.219 750.274 622.067 750.027 621.952C749.78 621.837 749.477 621.78 749.119 621.78C748.638 621.78 748.233 621.884 747.905 622.093C747.581 622.302 747.421 622.572 747.426 622.905C747.421 623.19 747.526 623.423 747.739 623.602C747.956 623.781 748.314 623.928 748.813 624.043L750.487 624.401C751.416 624.601 752.107 624.918 752.558 625.353C753.014 625.788 753.244 626.357 753.249 627.06C753.244 627.678 753.063 628.223 752.705 628.696C752.352 629.165 751.859 629.531 751.229 629.795C750.598 630.06 749.874 630.192 749.055 630.192C747.854 630.192 746.886 629.94 746.153 629.438C745.421 628.93 744.984 628.225 744.843 627.322L747.1 627.104C747.202 627.548 747.419 627.882 747.752 628.108C748.084 628.334 748.516 628.447 749.049 628.447C749.599 628.447 750.04 628.334 750.372 628.108C750.709 627.882 750.877 627.603 750.877 627.271C750.877 626.989 750.769 626.757 750.551 626.574C750.338 626.391 750.006 626.25 749.554 626.152L747.879 625.8C746.938 625.604 746.241 625.274 745.789 624.81C745.337 624.341 745.114 623.749 745.118 623.033C745.114 622.428 745.278 621.903 745.61 621.46C745.947 621.013 746.413 620.668 747.01 620.425C747.611 620.178 748.303 620.054 749.087 620.054C750.238 620.054 751.144 620.299 751.804 620.789C752.469 621.279 752.88 621.942 753.038 622.777ZM764.595 620.182V621.972H758.791V620.182H764.595ZM760.242 630V619.255C760.242 618.594 760.378 618.045 760.651 617.606C760.928 617.167 761.298 616.839 761.763 616.621C762.227 616.404 762.743 616.295 763.31 616.295C763.71 616.295 764.066 616.327 764.377 616.391C764.688 616.455 764.918 616.513 765.068 616.564L764.607 618.354C764.509 618.324 764.386 618.294 764.237 618.264C764.087 618.23 763.921 618.213 763.738 618.213C763.308 618.213 763.003 618.317 762.824 618.526C762.649 618.731 762.562 619.025 762.562 619.408V630H760.242ZM770.32 630.192C769.361 630.192 768.53 629.981 767.827 629.559C767.124 629.137 766.579 628.547 766.191 627.788C765.807 627.03 765.616 626.143 765.616 625.129C765.616 624.115 765.807 623.227 766.191 622.464C766.579 621.701 767.124 621.109 767.827 620.687C768.53 620.265 769.361 620.054 770.32 620.054C771.279 620.054 772.11 620.265 772.813 620.687C773.516 621.109 774.06 621.701 774.443 622.464C774.831 623.227 775.025 624.115 775.025 625.129C775.025 626.143 774.831 627.03 774.443 627.788C774.06 628.547 773.516 629.137 772.813 629.559C772.11 629.981 771.279 630.192 770.32 630.192ZM770.333 628.338C770.853 628.338 771.288 628.195 771.637 627.91C771.986 627.62 772.246 627.232 772.417 626.746C772.592 626.261 772.679 625.719 772.679 625.123C772.679 624.522 772.592 623.979 772.417 623.493C772.246 623.003 771.986 622.613 771.637 622.323C771.288 622.033 770.853 621.888 770.333 621.888C769.8 621.888 769.357 622.033 769.003 622.323C768.654 622.613 768.392 623.003 768.217 623.493C768.047 623.979 767.962 624.522 767.962 625.123C767.962 625.719 768.047 626.261 768.217 626.746C768.392 627.232 768.654 627.62 769.003 627.91C769.357 628.195 769.8 628.338 770.333 628.338ZM776.989 630V620.182H779.232V621.818H779.335C779.514 621.251 779.82 620.815 780.255 620.508C780.694 620.197 781.195 620.041 781.757 620.041C781.885 620.041 782.028 620.048 782.185 620.06C782.347 620.069 782.482 620.084 782.588 620.105V622.234C782.49 622.2 782.335 622.17 782.122 622.144C781.913 622.114 781.71 622.099 781.514 622.099C781.092 622.099 780.713 622.191 780.377 622.374C780.044 622.553 779.782 622.803 779.59 623.122C779.399 623.442 779.303 623.81 779.303 624.228V630H776.989ZM788.693 630V616.909H791.006V621.805H791.102C791.222 621.567 791.39 621.313 791.607 621.045C791.825 620.772 792.119 620.54 792.489 620.348C792.86 620.152 793.333 620.054 793.908 620.054C794.667 620.054 795.351 620.248 795.96 620.636C796.574 621.019 797.06 621.588 797.418 622.342C797.78 623.092 797.961 624.013 797.961 625.104C797.961 626.182 797.784 627.098 797.43 627.852C797.077 628.607 796.595 629.182 795.986 629.578C795.377 629.974 794.686 630.173 793.915 630.173C793.352 630.173 792.886 630.079 792.515 629.891C792.144 629.704 791.846 629.478 791.62 629.214C791.399 628.945 791.226 628.692 791.102 628.453H790.968V630H788.693ZM790.962 625.091C790.962 625.726 791.051 626.282 791.23 626.759C791.413 627.237 791.676 627.609 792.016 627.878C792.362 628.142 792.779 628.274 793.269 628.274C793.781 628.274 794.209 628.138 794.554 627.865C794.899 627.588 795.159 627.211 795.334 626.734C795.513 626.252 795.602 625.705 795.602 625.091C795.602 624.482 795.515 623.94 795.34 623.467C795.166 622.994 794.906 622.624 794.56 622.355C794.215 622.087 793.785 621.952 793.269 621.952C792.775 621.952 792.355 622.082 792.01 622.342C791.665 622.602 791.403 622.967 791.224 623.435C791.049 623.904 790.962 624.456 790.962 625.091ZM799.928 630V620.182H802.242V630H799.928ZM801.092 618.788C800.721 618.788 800.403 618.667 800.139 618.424C799.879 618.177 799.749 617.881 799.749 617.536C799.749 617.186 799.881 616.89 800.146 616.647C800.41 616.4 800.725 616.276 801.092 616.276C801.458 616.276 801.771 616.4 802.031 616.647C802.295 616.89 802.427 617.186 802.427 617.536C802.427 617.881 802.295 618.177 802.031 618.424C801.771 618.667 801.458 618.788 801.092 618.788ZM806.731 626.919L806.725 624.126H807.095L810.624 620.182H813.328L808.987 625.014H808.508L806.731 626.919ZM804.622 630V616.909H806.935V630H804.622ZM810.783 630L807.587 625.532L809.147 623.902L813.551 630H810.783ZM818.812 630.192C817.828 630.192 816.977 629.987 816.261 629.578C815.55 629.165 815.002 628.581 814.619 627.827C814.235 627.068 814.043 626.175 814.043 625.148C814.043 624.138 814.235 623.252 814.619 622.489C815.006 621.722 815.548 621.126 816.242 620.7C816.937 620.269 817.753 620.054 818.69 620.054C819.296 620.054 819.867 620.152 820.403 620.348C820.945 620.54 821.422 620.838 821.835 621.243C822.253 621.648 822.581 622.163 822.82 622.79C823.058 623.412 823.178 624.153 823.178 625.014V625.724H815.13V624.164H820.96C820.955 623.721 820.859 623.327 820.672 622.982C820.484 622.632 820.222 622.357 819.886 622.157C819.553 621.957 819.166 621.857 818.722 621.857C818.249 621.857 817.834 621.972 817.476 622.202C817.118 622.428 816.839 622.726 816.639 623.097C816.443 623.463 816.342 623.866 816.338 624.305V625.666C816.338 626.237 816.443 626.727 816.651 627.136C816.86 627.541 817.152 627.852 817.527 628.07C817.902 628.283 818.341 628.389 818.844 628.389C819.18 628.389 819.485 628.342 819.758 628.249C820.031 628.151 820.267 628.008 820.467 627.82C820.668 627.633 820.819 627.401 820.921 627.124L823.082 627.366C822.945 627.937 822.685 628.436 822.302 628.862C821.923 629.284 821.437 629.612 820.845 629.847C820.252 630.077 819.575 630.192 818.812 630.192ZM832.895 622.777L830.786 623.007C830.726 622.794 830.622 622.594 830.473 622.406C830.328 622.219 830.132 622.067 829.884 621.952C829.637 621.837 829.335 621.78 828.977 621.78C828.495 621.78 828.09 621.884 827.762 622.093C827.438 622.302 827.279 622.572 827.283 622.905C827.279 623.19 827.383 623.423 827.596 623.602C827.813 623.781 828.171 623.928 828.67 624.043L830.345 624.401C831.274 624.601 831.964 624.918 832.416 625.353C832.872 625.788 833.102 626.357 833.106 627.06C833.102 627.678 832.921 628.223 832.563 628.696C832.209 629.165 831.717 629.531 831.086 629.795C830.456 630.06 829.731 630.192 828.913 630.192C827.711 630.192 826.744 629.94 826.011 629.438C825.278 628.93 824.841 628.225 824.701 627.322L826.957 627.104C827.059 627.548 827.277 627.882 827.609 628.108C827.941 628.334 828.374 628.447 828.907 628.447C829.456 628.447 829.897 628.334 830.23 628.108C830.566 627.882 830.735 627.603 830.735 627.271C830.735 626.989 830.626 626.757 830.409 626.574C830.196 626.391 829.863 626.25 829.411 626.152L827.737 625.8C826.795 625.604 826.098 625.274 825.647 624.81C825.195 624.341 824.971 623.749 824.975 623.033C824.971 622.428 825.135 621.903 825.468 621.46C825.804 621.013 826.271 620.668 826.867 620.425C827.468 620.178 828.161 620.054 828.945 620.054C830.095 620.054 831.001 620.299 831.661 620.789C832.326 621.279 832.737 621.942 832.895 622.777Z" fill="black"/>
</svg>
